<?xml version="1.0" encoding="UTF-8"?>
<svg version="1.1" xmlns="http://www.w3.org/2000/svg" width="1024" height="1024">
<path d="M0 0 C337.92 0 675.84 0 1024 0 C1024 337.92 1024 675.84 1024 1024 C686.08 1024 348.16 1024 0 1024 C0 686.08 0 348.16 0 0 Z " fill="#FDFDFD" transform="translate(0,0)"/>
<path d="M0 0 C0.86496094 0.46148437 1.72992188 0.92296875 2.62109375 1.3984375 C24.73201727 13.88541771 41.12493809 34.98503265 48.375 59.25 C48.94459434 61.49309275 49.48827036 63.74300298 50 66 C50.22429687 66.93585938 50.44859375 67.87171875 50.6796875 68.8359375 C55.40818859 91.96025106 50.71697453 114.79490936 39 135 C38.45601562 135.98097656 37.91203125 136.96195313 37.3515625 137.97265625 C24.16362605 160.32781682 2.30320403 174.26636573 -22.23828125 181.34375 C-47.29920427 187.29882082 -74.52599685 183.13608557 -96.44750977 169.82543945 C-103.24623308 165.5333022 -109.3004774 160.69011745 -115 155 C-116.26457031 153.75283203 -116.26457031 153.75283203 -117.5546875 152.48046875 C-134.7070616 134.6764087 -143.81873203 108.92328622 -143.40234375 84.2956543 C-142.27923627 57.10177642 -131.72208913 32.84573695 -111.96875 14.05859375 C-81.70842338 -13.46756548 -36.08765307 -19.79491519 0 0 Z " fill="#E2457B" transform="translate(324,430)"/>
<path d="M0 0 C4.063125 -0.0825 8.12625 -0.165 12.3125 -0.25 C13.56973877 -0.28641602 14.82697754 -0.32283203 16.12231445 -0.36035156 C25.88883818 -0.45523905 35.27569905 1.25707072 42.5625 8.24609375 C46.90695544 13.54680161 48.80765767 19.54533676 48.51953125 26.375 C47.30275871 32.52290338 43.95647494 37.81992793 39.8125 42.4375 C30.73883061 47.47842744 22.58240425 48.54746855 12.3125 48.25 C8.249375 48.1675 4.18625 48.085 0 48 C0 32.16 0 16.32 0 0 Z " fill="#484E51" transform="translate(558,495)"/>
<path d="M0 0 C6.25546398 3.78091297 11.19672395 8.33391005 13.9453125 15.17578125 C15.05577243 22.9860161 14.558752 30.16165848 10.5703125 37.05078125 C6.78277876 42.00370999 1.85574204 45.26836332 -4.0546875 47.17578125 C-13.13188131 48.16130515 -21.58748304 47.98205612 -29.0546875 42.17578125 C-34.53153898 36.50455299 -37.33455954 30.80646597 -37.4296875 22.86328125 C-37.28670296 15.81732106 -36.06451034 11.40758668 -31.25390625 6.2421875 C-22.61598598 -1.8254623 -11.22656581 -4.9556598 0 0 Z " fill="#464B4D" transform="translate(536.0546875,495.82421875)"/>
<path d="M0 0 C7.425 -0.185625 7.425 -0.185625 15 -0.375 C16.54558594 -0.42962402 18.09117187 -0.48424805 19.68359375 -0.54052734 C26.73912742 -0.62587654 32.07398858 -0.57908014 37.6171875 4.31005859 C41.4291828 8.96871528 41.42019548 13.22783638 41.3203125 19.078125 C40.86364707 23.24380474 39.86783 24.97284611 37 28 C35.68639511 28.70474423 34.35533352 29.37928003 33 30 C33.40992188 30.73605469 33.81984375 31.47210937 34.2421875 32.23046875 C34.78101563 33.20628906 35.31984375 34.18210937 35.875 35.1875 C36.40867187 36.15042969 36.94234375 37.11335937 37.4921875 38.10546875 C38.8423678 40.69739518 39.97098329 43.26761098 41 46 C36.47652303 46.73463987 32.48439893 47.06972148 28 46 C25.66216693 43.07228697 24.27985665 40.12650003 22.69921875 36.73828125 C21.26430945 33.83706156 21.26430945 33.83706156 18.58203125 32.98046875 C15.80783501 32.66230583 15.80783501 32.66230583 12 33 C12 37.29 12 41.58 12 46 C8.04 46 4.08 46 0 46 C0 30.82 0 15.64 0 0 Z " fill="#444A4B" transform="translate(452,496)"/>
<path d="M0 0 C4.82625 -0.0825 9.6525 -0.165 14.625 -0.25 C16.13658691 -0.28641602 17.64817383 -0.32283203 19.20556641 -0.36035156 C20.40874512 -0.3703418 21.61192383 -0.38033203 22.8515625 -0.390625 C24.68968506 -0.4220459 24.68968506 -0.4220459 26.56494141 -0.45410156 C31.82698691 0.24152066 34.86599071 2.71274622 38.3125 6.625 C41.6435967 11.31321017 41.46854016 15.36884144 41 21 C39.20772052 26.27726735 36.42415494 28.83988933 32 32 C27.97268682 33.30357769 23.93878658 33.11060444 19.75 33.0625 C19.00492187 33.05798828 18.25984375 33.05347656 17.4921875 33.04882812 C15.6614236 33.03709246 13.83070127 33.0191585 12 33 C12 37.29 12 41.58 12 46 C8.04 46 4.08 46 0 46 C0 30.82 0 15.64 0 0 Z " fill="#454A4C" transform="translate(404,496)"/>
<path d="M0 0 C3.96 0 7.92 0 12 0 C15.90796769 7.5182769 19.21722053 15.28371762 22.5625 23.0625 C23.1449744 24.41219911 23.72765528 25.76180914 24.31054688 27.11132812 C25.8768133 30.73954866 27.43966078 34.36922561 29 38 C29.28165009 38.62188202 29.56330017 39.24376404 29.85348511 39.88449097 C31.14661249 42.77437343 32 44.79526102 32 48 C27.71 48 23.42 48 19 48 C18.01 45.03 17.02 42.06 16 39 C9.07 38.67 2.14 38.34 -5 38 C-5.99 41.3 -6.98 44.6 -8 48 C-12.29 48 -16.58 48 -21 48 C-18.72420121 40.56733799 -15.69961092 33.55052972 -12.49414062 26.48022461 C-11.62916389 24.57168745 -10.77109156 22.66016413 -9.9140625 20.74804688 C-6.76557973 13.74843463 -3.48733205 6.83752182 0 0 Z " fill="#464D4F" transform="translate(730,495)"/>
<path d="M0 0 C1.97909398 -0.02686553 3.95828971 -0.04633375 5.9375 -0.0625 C7.03964844 -0.07410156 8.14179687 -0.08570313 9.27734375 -0.09765625 C12 0 12 0 13 1 C13.14676374 3.24325357 13.22756009 5.49087306 13.28125 7.73828125 C13.30886414 8.75404488 13.30886414 8.75404488 13.33703613 9.79032898 C13.39594536 11.96429528 13.4486514 14.13834278 13.5 16.3125 C13.56781434 19.16292046 13.64159317 22.01310024 13.71875 24.86328125 C13.74904297 26.13469971 13.77933594 27.40611816 13.81054688 28.71606445 C13.97776718 32.45896703 13.97776718 32.45896703 15 36 C18.69798008 37.23266003 22.15521703 37.58136839 26 37 C28.43119623 35.12984906 29.64069173 33.71861655 31 31 C31.15520557 28.67726841 31.25019167 26.35040687 31.31640625 24.0234375 C31.33718735 23.33819 31.35796844 22.6529425 31.37937927 21.94692993 C31.44480185 19.75638931 31.50372554 17.56572811 31.5625 15.375 C31.60569218 13.8906125 31.6493067 12.40623722 31.69335938 10.921875 C31.80047553 7.28137916 31.90176362 3.64074749 32 0 C35.96 0 39.92 0 44 0 C44.12483978 4.51651109 44.2149125 9.03207334 44.2746582 13.54980469 C44.29959759 15.0822095 44.33356266 16.61449792 44.37719727 18.14648438 C44.63023301 27.26767877 44.68089747 35.32905493 39 43 C34.82061418 47.39819221 30.67324556 48.27588384 24.77099609 48.58447266 C18.25317325 48.70078728 12.66149825 48.58549971 7.37109375 44.34375 C6.91863281 43.9003125 6.46617187 43.456875 6 43 C5.1028125 42.13375 5.1028125 42.13375 4.1875 41.25 C-0.44125589 32.47972568 -0.36878508 24.08665476 -0.1875 14.4375 C-0.17242111 13.03321753 -0.15873839 11.62891934 -0.14648438 10.22460938 C-0.11134406 6.81599885 -0.06214123 3.4082073 0 0 Z " fill="#4A4F51" transform="translate(612,495)"/>
<path d="M0 0 C3.27707268 1.79961279 4.71512653 3.27725902 6.125 6.75 C4.145 8.73 2.165 10.71 0.125 12.75 C-2.24395052 11.82874146 -4.54541344 10.93174732 -6.7734375 9.703125 C-10.40060387 8.05809044 -13.97802908 8.19618438 -17.875 8.75 C-21.03189734 10.35714774 -23.06915756 11.72438234 -25.25 14.5 C-26.59563311 19.34427919 -26.38270605 23.3604887 -24.6875 28 C-22.60798015 31.15513357 -21.18063525 32.88159747 -17.875 34.75 C-11.42942149 35.91759093 -8.21920565 34.39377658 -2.875 30.75 C0.79373823 31.36145637 1.97650206 32.58143478 4.4375 35.375 C4.994375 36.15875 5.55125 36.9425 6.125 37.75 C5.07012267 38.71671756 4.00566719 39.67298745 2.9375 40.625 C2.34582031 41.15867187 1.75414062 41.69234375 1.14453125 42.2421875 C-5.55693926 47.24560649 -13.93495703 46.37915085 -21.875 45.75 C-28.11259726 44.19293162 -32.47273975 40.1024655 -35.875 34.75 C-39.31021023 27.8925426 -40.3244638 19.95530712 -38.25390625 12.51953125 C-35.5690995 6.35044197 -30.5465778 1.63625732 -24.6015625 -1.41796875 C-16.89366568 -3.77009199 -7.28580871 -3.45677055 0 0 Z " fill="#474C4E" transform="translate(701.875,497.25)"/>
<path d="M0 0 C2.5 0.125 2.5 0.125 3.5 1.125 C3.58737645 2.97869611 3.60698153 4.83567541 3.59765625 6.69140625 C3.59443359 7.81611328 3.59121094 8.94082031 3.58789062 10.09960938 C3.57951172 11.28361328 3.57113281 12.46761719 3.5625 13.6875 C3.55798828 14.87537109 3.55347656 16.06324219 3.54882812 17.28710938 C3.53699675 20.23312226 3.52051287 23.17903681 3.5 26.125 C4.26957031 26.41632813 5.03914063 26.70765625 5.83203125 27.0078125 C9.50838705 28.54725285 12.48588068 30.49604876 14.62109375 33.92578125 C16.51926406 38.67542519 16.3342212 44.39754625 14.84765625 49.2578125 C12.89775322 53.12414383 10.29416947 55.57591777 6.4921875 57.46875 C1.5213286 59.1062094 -2.94853258 58.68118643 -7.8125 56.9375 C-12.26724598 53.93313643 -15.05302848 50.30998129 -16.5 45.125 C-16.95503372 40.34714592 -17.02947247 38.14472475 -14.8125 33.875 C-11.44205979 29.86690894 -8.65587078 27.22826896 -3.5 26.125 C-3.50523682 25.3729126 -3.51047363 24.6208252 -3.51586914 23.84594727 C-3.53657227 20.45980658 -3.54963877 17.07367916 -3.5625 13.6875 C-3.57087891 12.50349609 -3.57925781 11.31949219 -3.58789062 10.09960938 C-3.59111328 8.97490234 -3.59433594 7.85019531 -3.59765625 6.69140625 C-3.60551147 5.12821655 -3.60551147 5.12821655 -3.61352539 3.53344727 C-3.45773982 0.22844794 -3.31035851 0.16551793 0 0 Z " fill="#FDEFF7" transform="translate(278.5,474.875)"/>
<path d="M0 0 C0.55255495 10.36347501 0.93425682 19.93011118 -5 29 C-11.53061008 34.77707815 -16.53504511 35.2958625 -25 35 C-25.99 37.475 -25.99 37.475 -27 40 C-27.99 39.67 -28.98 39.34 -30 39 C-29.90460937 38.40832031 -29.80921875 37.81664062 -29.7109375 37.20703125 C-29.03219634 32.36902743 -28.9772721 29.52139178 -31 25 C-31.63116712 19.3194959 -30.48821364 15.4566129 -27 11 C-19.56961516 2.69545224 -10.91718358 -0.29159144 0 0 Z " fill="#D02D72" transform="translate(832,500)"/>
<path d="M0 0 C4.40617281 2.16303029 7.1644597 4.41114924 9 9 C9.72011316 13.80075437 9.5059086 17.0579633 7.1875 21.375 C3.29537018 26.04555579 1.52548136 27.70536051 -4.75 28.4375 C-9.18811377 28.38836959 -11.48006176 26.67566288 -14.58984375 23.63671875 C-17.90346905 19.79071044 -18.45357991 16.03731091 -18.3203125 10.9921875 C-17.65641291 6.86305592 -15.19717867 4.06981923 -12.1640625 1.359375 C-8.34679574 -1.03847488 -4.3502589 -0.61852022 0 0 Z " fill="#F9F9FA" transform="translate(529,505)"/>
<path d="M0 0 C15.88888889 0 15.88888889 0 20 4 C23.52146189 7.957371 23.6222841 11.07657461 23.484375 16.234375 C22.71576331 20.6228998 20.53532106 23.36959843 17 26 C12 28 12 28 0 28 C0 18.76 0 9.52 0 0 Z " fill="#F4F5F5" transform="translate(570,505)"/>
<path d="M0 0 C4.41510774 0.48713098 6.30446645 1.85053197 9.3125 5.0625 C10.00988281 5.79597656 10.70726562 6.52945313 11.42578125 7.28515625 C12.20501953 8.13400391 12.20501953 8.13400391 13 9 C12.67 9.99 12.34 10.98 12 12 C8.62189888 11.39676766 6.67744188 10.09807945 4 8 C7.4303322 18.97706306 11.2684936 26.18154628 21.56640625 31.8125 C29.19715016 35.53600907 37.34790232 36.24396241 45.64453125 34.41796875 C54.07791896 31.50944606 61.58374551 25.44886014 65.625 17.4375 C66.305625 15.7359375 66.305625 15.7359375 67 14 C68.32 14.33 69.64 14.66 71 15 C68.93237895 23.27048419 63.07421771 30.3437278 56 35 C45.46879703 40.02479654 34.66516425 42.20177469 23.25 38.5 C14.45736615 34.79647528 7.66289677 28.9761423 3.05078125 20.609375 C1.38525186 16.47341354 1.0188499 12.42972608 1 8 C0.2575 8.845625 -0.485 9.69125 -1.25 10.5625 C-2.1575 11.366875 -3.065 12.17125 -4 13 C-6.3125 12.8125 -6.3125 12.8125 -8 12 C-6.49087042 7.01987239 -3.44338151 3.75740058 0 0 Z " fill="#C62E6E" transform="translate(781,515)"/>
<path d="M0 0 C8.06841536 5.73241701 13.80746416 13.15702086 16.67578125 22.64453125 C17.10890625 21.98453125 17.54203125 21.32453125 17.98828125 20.64453125 C18.54515625 19.98453125 19.10203125 19.32453125 19.67578125 18.64453125 C20.66578125 18.64453125 21.65578125 18.64453125 22.67578125 18.64453125 C22.37301249 24.69990646 19.39824087 28.15936583 15.67578125 32.64453125 C11.81707893 32.069266 9.78079557 30.28680727 6.92578125 27.70703125 C6.1265625 26.99675781 5.32734375 26.28648437 4.50390625 25.5546875 C2.67578125 23.64453125 2.67578125 23.64453125 2.67578125 21.64453125 C4.36328125 20.89453125 4.36328125 20.89453125 6.67578125 20.64453125 C9.42578125 22.58203125 9.42578125 22.58203125 11.67578125 24.64453125 C8.27074574 14.32367829 3.50501124 7.64563755 -6.2109375 2.5546875 C-13.60477588 -0.62971979 -23.75290723 -0.79661362 -31.421875 1.62109375 C-33.86118183 2.82051159 -36.08202507 4.11133162 -38.32421875 5.64453125 C-39.25234375 6.26328125 -40.18046875 6.88203125 -41.13671875 7.51953125 C-44.77651867 11.05533689 -47.7124691 14.8092823 -49.32421875 19.64453125 C-50.31421875 19.64453125 -51.30421875 19.64453125 -52.32421875 19.64453125 C-52.46831839 13.01594786 -49.40537206 9.69054512 -44.9296875 5.015625 C-31.94933638 -6.79707834 -15.31565361 -8.93198622 0 0 Z " fill="#EDA4B7" transform="translate(836.32421875,487.35546875)"/>
<path d="M0 0 C0.43439162 8.60738949 -0.16992267 15.56621219 -4.875 22.9375 C-8.19423825 26.1591136 -10.71805884 26.95162486 -15.3125 27.125 C-16.199375 27.08375 -17.08625 27.0425 -18 27 C-15.94580542 22.45295471 -12.87070352 18.71330116 -9.875 14.75390625 C-8.13990877 12.205491 -7.01024019 9.89917889 -6 7 C-10.02932152 9.10828527 -12.18508864 11.22107767 -14.6875 15 C-15.26886719 15.86625 -15.85023438 16.7325 -16.44921875 17.625 C-16.96097656 18.40875 -17.47273437 19.1925 -18 20 C-18.66 20.99 -19.32 21.98 -20 23 C-20.66 23 -21.32 23 -22 23 C-22.56873229 18.59458161 -22.92863722 14.6755228 -20.72265625 10.6953125 C-15.43240221 4.33741081 -8.39939791 0 0 0 Z " fill="#FCEEF6" transform="translate(828,504)"/>
<path d="M0 0 C4.529087 0.51272683 6.26137669 2.04005127 9.3125 5.375 C10.52371208 9.36487509 10.76246519 11.36257832 9.0625 15.1875 C7.3125 17.375 7.3125 17.375 4.3125 19.375 C0.10071757 19.84297583 -1.97349114 19.84065795 -5.5625 17.5 C-8.2748239 14.7876761 -8.62664093 13.91258847 -9.0625 10.0625 C-8.59536625 5.46901813 -7.16709782 4.26052015 -3.6875 1.375 C-2.6875 0.375 -2.6875 0.375 0 0 Z " fill="#DA3F79" transform="translate(277.6875,506.625)"/>
<path d="M0 0 C12.59717314 -0.27385159 12.59717314 -0.27385159 16 2 C17.44430855 4.88861709 17.37688506 6.79647701 17 10 C15.25 12.875 15.25 12.875 12 15 C7.90373835 15.42081232 4.13768332 15.22734524 0 15 C0 10.05 0 5.1 0 0 Z " fill="#F4F5F4" transform="translate(464,505)"/>
<path d="M0 0 C11.09433962 -0.6095791 11.09433962 -0.6095791 15.25 2.1875 C17 5 17 5 17.625 7.5 C16.63580973 11.4567611 15.40529805 12.70797246 12 15 C7.90376208 15.42613658 4.13815997 15.22737143 0 15 C0 10.05 0 5.1 0 0 Z " fill="#F3F3F4" transform="translate(416,505)"/>
<path d="M0 0 C0.66 0 1.32 0 2 0 C1.9278125 1.10214844 1.855625 2.20429688 1.78125 3.33984375 C0.17201544 25.39664534 0.17201544 25.39664534 4 47 C4.28875 48.155 4.5775 49.31 4.875 50.5 C6.57987995 55.80407096 8.79949964 60.88509648 11 66 C11.99 66 12.98 66 14 66 C14.495 66.99 14.495 66.99 15 68 C14.67 68.99 14.34 69.98 14 71 C14.66 71 15.32 71 16 71 C16 72.98 16 74.96 16 77 C16.66 77 17.32 77 18 77 C19.30973808 78.68437037 20.54824593 80.42446157 21.75 82.1875 C24.8466788 86.58387976 27.7829525 89.73178819 32 93 C32 93.66 32 94.32 32 95 C34.64 95.66 37.28 96.32 40 97 C39.505 98.485 39.505 98.485 39 100 C33.7577564 99.0933592 30.76394071 95.52248036 27 92 C26.41992188 91.484375 25.83984375 90.96875 25.2421875 90.4375 C8.365268 74.73804 -1.19125272 49.82688436 -2.16796875 27.08984375 C-2.18253599 25.70579051 -2.18878056 24.3216293 -2.1875 22.9375 C-2.18814453 22.20668213 -2.18878906 21.47586426 -2.18945312 20.72290039 C-2.12250135 13.6982901 -1.22810233 6.91904079 0 0 Z " fill="#C91B65" transform="translate(183,494)"/>
<path d="M0 0 C1.32 0.33 2.64 0.66 4 1 C1.93237895 9.27048419 -3.92578229 16.3437278 -11 21 C-17.75568812 24.22336948 -23.67600375 26.13141281 -31.1875 26.0625 C-32.45980469 26.05347656 -33.73210938 26.04445313 -35.04296875 26.03515625 C-36.50669922 26.01775391 -36.50669922 26.01775391 -38 26 C-38 25.67 -38 25.34 -38 25 C-34.04 25 -30.08 25 -26 25 C-26 24.34 -26 23.68 -26 23 C-28.31 23 -30.62 23 -33 23 C-33 22.67 -33 22.34 -33 22 C-32.24976563 21.91363281 -31.49953125 21.82726562 -30.7265625 21.73828125 C-19.90270834 20.25238691 -10.83490674 16.88356579 -4 8 C-2.44958977 5.37764442 -1.22755984 2.79883642 0 0 Z " fill="#EC9EB0" transform="translate(848,529)"/>
<path d="M0 0 C1.75570312 0.01353516 1.75570312 0.01353516 3.546875 0.02734375 C4.43890625 0.03894531 5.3309375 0.05054688 6.25 0.0625 C6.745 1.5475 6.745 1.5475 7.25 3.0625 C6.52296875 3.06507813 5.7959375 3.06765625 5.046875 3.0703125 C-5.45523662 3.47423987 -13.82320413 7.16152478 -21.75 14.0625 C-23.30039752 15.82053454 -23.30039752 15.82053454 -24.5 17.625 C-24.90734375 18.20378906 -25.3146875 18.78257812 -25.734375 19.37890625 C-26.91861181 21.20290533 -26.91861181 21.20290533 -27.75 24.0625 C-28.74 24.0625 -29.73 24.0625 -30.75 24.0625 C-30.89403325 17.43697072 -27.83265465 14.11696717 -23.3671875 9.4375 C-16.12498285 2.86546952 -9.69705054 -0.09697051 0 0 Z " fill="#EAA0AF" transform="translate(814.75,482.9375)"/>
<path d="M0 0 C0.05392397 2.77109307 0.09363455 5.54113818 0.125 8.3125 C0.14175781 9.09818359 0.15851562 9.88386719 0.17578125 10.69335938 C0.18222656 11.45068359 0.18867187 12.20800781 0.1953125 12.98828125 C0.20578613 13.68477783 0.21625977 14.38127441 0.22705078 15.09887695 C0 17 0 17 -2 20 C-2.33 19.01 -2.66 18.02 -3 17 C-3.66 17 -4.32 17 -5 17 C-4.67 12.71 -4.34 8.42 -4 4 C-6.908125 4.9590625 -6.908125 4.9590625 -9.875 5.9375 C-10.96554687 6.29714844 -12.05609375 6.65679687 -13.1796875 7.02734375 C-15.90758682 7.89914074 -15.90758682 7.89914074 -18 9 C-18.99 7.68 -19.98 6.36 -21 5 C-19.58521865 4.35004703 -18.16808513 3.70521278 -16.75 3.0625 C-15.96109375 2.70285156 -15.1721875 2.34320313 -14.359375 1.97265625 C-9.42448911 -0.06175863 -5.30570458 -0.08842841 0 0 Z " fill="#E588A8" transform="translate(832,500)"/>
<path d="M0 0 C7.26 0 14.52 0 22 0 C22.33 1.65 22.66 3.3 23 5 C22 6 22 6 19.86694336 6.11352539 C18.95050049 6.10828857 18.03405762 6.10305176 17.08984375 6.09765625 C16.10048828 6.09443359 15.11113281 6.09121094 14.09179688 6.08789062 C13.05087891 6.07951172 12.00996094 6.07113281 10.9375 6.0625 C9.89271484 6.05798828 8.84792969 6.05347656 7.77148438 6.04882812 C5.1809334 6.03699913 2.59049441 6.02051689 0 6 C0 4.02 0 2.04 0 0 Z " fill="#FEEFFB" transform="translate(207,513)"/>
<path d="M0 0 C0.99 0 1.98 0 3 0 C2.69723124 6.05537521 -0.27754038 9.51483458 -4 14 C-7.85870232 13.42473475 -9.89498568 11.64227602 -12.75 9.0625 C-13.54921875 8.35222656 -14.3484375 7.64195312 -15.171875 6.91015625 C-17 5 -17 5 -17 3 C-15.1875 2.3125 -15.1875 2.3125 -13 2 C-11.375 3.4375 -11.375 3.4375 -10 5 C-9.34 5 -8.68 5 -8 5 C-7.34 4.01 -6.68 3.02 -6 2 C-5.01 2.66 -4.02 3.32 -3 4 C-2.566875 3.34 -2.13375 2.68 -1.6875 2 C-1.130625 1.34 -0.57375 0.68 0 0 Z " fill="#F2A2B4" transform="translate(856,506)"/>
<path d="M0 0 C24.70787247 -1.04844739 47.36758949 2.36333271 68 17 C68.495 17.99 68.495 17.99 69 19 C67.35 19.33 65.7 19.66 64 20 C63.505 18.515 63.505 18.515 63 17 C62.34 16.67 61.68 16.34 61 16 C61 15.34 61 14.68 61 14 C60.44828125 13.88785156 59.8965625 13.77570313 59.328125 13.66015625 C56.59934789 12.88639227 54.27227057 11.73182306 51.75 10.4375 C50.85796875 9.98246094 49.9659375 9.52742188 49.046875 9.05859375 C48.37140625 8.70925781 47.6959375 8.35992187 47 8 C46.67 8.66 46.34 9.32 46 10 C45.34 9.01 44.68 8.02 44 7 C40.23769244 5.64556928 36.57877156 4.8997215 32.625 4.4375 C29 4 29 4 28 3 C25.85613343 2.84141158 23.70733162 2.74870702 21.55859375 2.68359375 C20.25341797 2.64169922 18.94824219 2.59980469 17.60351562 2.55664062 C16.2148467 2.51682392 14.82617478 2.47711175 13.4375 2.4375 C12.04490817 2.39432011 10.65232972 2.350706 9.25976562 2.30664062 C5.83995199 2.20014124 2.42006237 2.09813077 -1 2 C-0.67 1.34 -0.34 0.68 0 0 Z " fill="#CC5880" transform="translate(266,419)"/>
<path d="M0 0 C1.32 0.33 2.64 0.66 4 1 C4 8.26 4 15.52 4 23 C2.35 23 0.7 23 -1 23 C-3.30009773 20.69990227 -2.18537365 15.15209334 -2.1875 12.0625 C-2.19974609 11.12986328 -2.21199219 10.19722656 -2.22460938 9.23632812 C-2.22654297 8.34494141 -2.22847656 7.45355469 -2.23046875 6.53515625 C-2.23663208 5.30357788 -2.23663208 5.30357788 -2.24291992 4.04711914 C-2 2 -2 2 0 0 Z " fill="#FEEDF8" transform="translate(277,565)"/>
<path d="M0 0 C7.26 0 14.52 0 22 0 C22 1.98 22 3.96 22 6 C14.74 6 7.48 6 0 6 C0 4.02 0 2.04 0 0 Z " fill="#FEF4FA" transform="translate(327,513)"/>
<path d="M0 0 C1.65 0 3.3 0 5 0 C5 6.93 5 13.86 5 21 C3.35 21.33 1.7 21.66 0 22 C-1.58937556 20.41062444 -1.12981143 18.76100154 -1.1328125 16.5625 C-1.13410156 15.66789062 -1.13539063 14.77328125 -1.13671875 13.8515625 C-1.13091797 12.44003906 -1.13091797 12.44003906 -1.125 11 C-1.12886719 10.05898438 -1.13273437 9.11796875 -1.13671875 8.1484375 C-1.13542969 7.25382812 -1.13414062 6.35921875 -1.1328125 5.4375 C-1.13112061 4.19806641 -1.13112061 4.19806641 -1.12939453 2.93359375 C-1 1 -1 1 0 0 Z " fill="#FEEAF7" transform="translate(276,444)"/>
<path d="M0 0 C0.33 0 0.66 0 1 0 C6.25187393 23.07073189 2.91162876 46.57516105 -9 67 C-11 64 -11 64 -11 62 C-10.4225 61.505 -9.845 61.01 -9.25 60.5 C0.14097665 50.06558149 0.92803811 29.43888243 1 16 C0.68208934 14.33032288 0.34896031 12.66346494 0 11 C-0.06533435 9.06348981 -0.08584303 7.12497139 -0.0625 5.1875 C-0.05347656 4.21167969 -0.04445313 3.23585938 -0.03515625 2.23046875 C-0.02355469 1.49441406 -0.01195312 0.75835937 0 0 Z " fill="#E69FAB" transform="translate(373,496)"/>
<path d="M0 0 C3.01729419 1.50864709 3.36592542 3.80462514 4.625 6.875 C5.07101562 7.94492187 5.51703125 9.01484375 5.9765625 10.1171875 C7 13 7 13 7 16 C3.04 16 -0.92 16 -5 16 C-4.39363767 10.23955788 -2.24341721 5.27985631 0 0 Z " fill="#EBEEED" transform="translate(735,508)"/>
<path d="M0 0 C1.01964844 -0.02900391 2.03929687 -0.05800781 3.08984375 -0.08789062 C4.55744141 -0.10045898 4.55744141 -0.10045898 6.0546875 -0.11328125 C6.95429199 -0.12786377 7.85389648 -0.14244629 8.78076172 -0.1574707 C11.125 0.3125 11.125 0.3125 12.95751953 2.17114258 C14.125 4.3125 14.125 4.3125 13.875 7 C13.125 9.3125 13.125 9.3125 12.125 10.3125 C10.56327255 10.39935603 8.99770656 10.41952219 7.43359375 10.41015625 C6.48935547 10.40693359 5.54511719 10.40371094 4.57226562 10.40039062 C3.57904297 10.39201172 2.58582031 10.38363281 1.5625 10.375 C0.56541016 10.37048828 -0.43167969 10.36597656 -1.45898438 10.36132812 C-3.93104849 10.34950007 -6.40299518 10.33301849 -8.875 10.3125 C-9.205 9.6525 -9.535 8.9925 -9.875 8.3125 C0.52 7.8175 0.52 7.8175 11.125 7.3125 C11.125 5.9925 11.125 4.6725 11.125 3.3125 C3.865 3.3125 -3.395 3.3125 -10.875 3.3125 C-11.205 4.9625 -11.535 6.6125 -11.875 8.3125 C-12.535 7.6525 -13.195 6.9925 -13.875 6.3125 C-10.933756 -1.33473441 -7.76523194 0.07307307 0 0 Z " fill="#C63773" transform="translate(217.875,510.6875)"/>
<path d="M0 0 C0.66 0 1.32 0 2 0 C0.60618111 5.27087834 -1.75063613 8.72969485 -5.125 12.875 C-5.6214502 13.49141357 -6.11790039 14.10782715 -6.62939453 14.74291992 C-13.58946926 23.28503425 -24.35000364 36.21856852 -36 38 C-36 37.34 -36 36.68 -36 36 C-35.01 36 -34.02 36 -33 36 C-33 35.34 -33 34.68 -33 34 C-26.25 30 -26.25 30 -24 30 C-24 29.01 -24 28.02 -24 27 C-23.01 27 -22.02 27 -21 27 C-21 26.34 -21 25.68 -21 25 C-20.34 24.67 -19.68 24.34 -19 24 C-19.33 23.34 -19.66 22.68 -20 22 C-19.29875 22 -18.5975 22 -17.875 22 C-13.97744039 20.64432709 -12.70609989 18.34244903 -10.4296875 15.0078125 C-9.08127907 13.11414602 -7.6513667 11.62529249 -6 10 C-5.09855006 8.85364747 -4.22313116 7.68634297 -3.375 6.5 C-2.94960938 5.9121875 -2.52421875 5.324375 -2.0859375 4.71875 C-0.82563683 2.87589249 -0.82563683 2.87589249 0 0 Z " fill="#E28DA3" transform="translate(361,563)"/>
<path d="M0 0 C0.70382812 0.39832031 1.40765625 0.79664063 2.1328125 1.20703125 C10.03566513 5.44733468 17.18303127 7.51311474 26 9 C26 9.66 26 10.32 26 11 C8.00109042 11.69128102 8.00109042 11.69128102 0.375 6.0625 C-1 4 -1 4 -0.5859375 1.87109375 C-0.39257812 1.25363281 -0.19921875 0.63617187 0 0 Z " fill="#CC3D71" transform="translate(796,543)"/>
<path d="M0 0 C0 1.32 0 2.64 0 4 C-0.99 4.495 -0.99 4.495 -2 5 C-2.33 5.99 -2.66 6.98 -3 8 C-3.99 8.33 -4.98 8.66 -6 9 C-7.21869929 11.50447516 -7.21869929 11.50447516 -8 14 C-8.66 14 -9.32 14 -10 14 C-10 14.66 -10 15.32 -10 16 C-10.66 16 -11.32 16 -12 16 C-12.2475 16.825 -12.495 17.65 -12.75 18.5 C-14.18704811 22.52373471 -16.02354515 26.21979024 -18 30 C-18.33 30 -18.66 30 -19 30 C-19.43719575 24.8473358 -18.11436738 21.56217256 -15.5 17.25 C-15.14268799 16.64526855 -14.78537598 16.04053711 -14.41723633 15.41748047 C-5.0986878 0 -5.0986878 0 0 0 Z " fill="#CD206A" transform="translate(209,450)"/>
<path d="M0 0 C0.66 0.66 1.32 1.32 2 2 C-10.47076832 8.12312683 -22.83676669 13.16001431 -36.9296875 13.09765625 C-38.21875 13.09443359 -39.5078125 13.09121094 -40.8359375 13.08789062 C-42.18229236 13.07953733 -43.52864652 13.07107241 -44.875 13.0625 C-46.24479004 13.0574783 -47.61458185 13.05291657 -48.984375 13.04882812 C-52.3229619 13.03707254 -55.66145815 13.02063964 -59 13 C-59 12.67 -59 12.34 -59 12 C-58.01157104 11.970271 -58.01157104 11.970271 -57.00317383 11.93994141 C-35.18128245 11.68864757 -35.18128245 11.68864757 -14.3671875 5.953125 C-10.66376081 4.4619763 -6.91293683 3.75734261 -3 3 C-3 2.34 -3 1.68 -3 1 C-2.01 0.67 -1.02 0.34 0 0 Z " fill="#CA577F" transform="translate(323,600)"/>
<path d="M0 0 C8.33621571 -0.59075544 15.32377375 0.62393902 23 4 C23.66 4.66 24.32 5.32 25 6 C24.01 7.485 24.01 7.485 23 9 C22.44054687 8.79503906 21.88109375 8.59007812 21.3046875 8.37890625 C13.91928411 5.89731572 6.75522303 5.32406552 -1 5 C-1 4.67 -1 4.34 -1 4 C2.96 4 6.92 4 11 4 C10.67 3.34 10.34 2.68 10 2 C7.64400765 1.53248212 7.64400765 1.53248212 4.9375 1.375 C4.01839844 1.30023438 3.09929688 1.22546875 2.15234375 1.1484375 C1.08693359 1.07496094 1.08693359 1.07496094 0 1 C0 0.67 0 0.34 0 0 Z " fill="#EFB2BE" transform="translate(811,482)"/>
<path d="M0 0 C10.97699187 10.38724014 18.56320038 25.98792117 20 41 C18.515 40.505 18.515 40.505 17 40 C17.66 40 18.32 40 19 40 C15.77140876 31.409599 15.77140876 31.409599 12.25 22.9375 C11 20 11 20 10.5 17.625 C10.335 17.08875 10.17 16.5525 10 16 C9.01 15.67 8.02 15.34 7 15 C6.9071875 13.948125 6.9071875 13.948125 6.8125 12.875 C5.7427363 9.08968229 3.52868418 6.97120391 1 4 C0.1875 1.625 0.1875 1.625 0 0 Z " fill="#E495A7" transform="translate(353,455)"/>
<path d="M0 0 C0.99 0.33 1.98 0.66 3 1 C3.6875 3.0625 3.6875 3.0625 4 5 C4.66 5 5.32 5 6 5 C7.30973808 6.68437037 8.54824593 8.42446157 9.75 10.1875 C12.8466788 14.58387976 15.7829525 17.73178819 20 21 C20 21.66 20 22.32 20 23 C22.64 23.66 25.28 24.32 28 25 C27.67 25.99 27.34 26.98 27 28 C21.76073675 27.09387465 18.7586672 23.52507771 15 20 C14.40832031 19.46117187 13.81664062 18.92234375 13.20703125 18.3671875 C8.08282238 13.51267384 3.79619917 7.94573532 0 2 C0 1.34 0 0.68 0 0 Z " fill="#C92A6D" transform="translate(195,566)"/>
<path d="M0 0 C-0.29931679 4.78906865 -2.72017171 7.5436737 -5.625 11.1328125 C-7.19030864 13.05775029 -7.19030864 13.05775029 -8 16 C-8.99 16 -9.98 16 -11 16 C-11 9.46538931 -8.25090381 6.44154516 -3.91015625 1.72265625 C-2 0 -2 0 0 0 Z " fill="#E5829E" transform="translate(795,491)"/>
<path d="M0 0 C0.99 0 1.98 0 3 0 C2.46719784 4.22489602 1.12321801 6.54080716 -1.5625 9.8125 C-2.20316406 10.60269531 -2.84382812 11.39289062 -3.50390625 12.20703125 C-3.99761719 12.79871094 -4.49132812 13.39039063 -5 14 C-5.33 13.34 -5.66 12.68 -6 12 C-6.99 11.67 -7.98 11.34 -9 11 C-7.68823998 9.35357683 -6.3755713 7.70787757 -5.0625 6.0625 C-4.33160156 5.14597656 -3.60070312 4.22945312 -2.84765625 3.28515625 C-1 1 -1 1 0 0 Z " fill="#CA3E7A" transform="translate(819,511)"/>
<path d="M0 0 C0.66 0 1.32 0 2 0 C1.43114063 10.67519075 0.80552744 21.33961555 0 32 C-0.66 31.67 -1.32 31.34 -2 31 C-2.23049133 20.42300905 -1.85466965 10.44907631 0 0 Z " fill="#C3276A" transform="translate(183,494)"/>
<path d="M0 0 C0.33 0 0.66 0 1 0 C1 7.92 1 15.84 1 24 C-2.96 25.98 -2.96 25.98 -7 28 C-7 26.68 -7 25.36 -7 24 C-5.35 24 -3.7 24 -2 24 C-1.96241577 23.01604248 -1.96241577 23.01604248 -1.92407227 22.01220703 C-1.8082674 19.04959817 -1.68547114 16.08731969 -1.5625 13.125 C-1.52318359 12.09246094 -1.48386719 11.05992187 -1.44335938 9.99609375 C-1.40146484 9.00996094 -1.35957031 8.02382813 -1.31640625 7.0078125 C-1.27974854 6.09660645 -1.24309082 5.18540039 -1.20532227 4.24658203 C-1 2 -1 2 0 0 Z " fill="#C94979" transform="translate(274,477)"/>
<path d="M0 0 C4.41510774 0.48713098 6.30446645 1.85053197 9.3125 5.0625 C10.00988281 5.79597656 10.70726562 6.52945313 11.42578125 7.28515625 C11.94527344 7.85105469 12.46476563 8.41695312 13 9 C12.67 9.99 12.34 10.98 12 12 C9.07471973 11.37315423 6.58774327 10.51695295 4 9 C2.75453595 6.50907189 3.2232422 5.58919267 4 3 C2.02 3 0.04 3 -2 3 C-1.34 2.01 -0.68 1.02 0 0 Z " fill="#C43475" transform="translate(781,515)"/>
<path d="M0 0 C1.32 0.33 2.64 0.66 4 1 C2.68139111 5.61513112 0.78644563 9.09897612 -2 13 C-2.33 12.34 -2.66 11.68 -3 11 C-4.32 11.99 -5.64 12.98 -7 14 C-7.66 13.67 -8.32 13.34 -9 13 C-8.60167969 12.56429687 -8.20335937 12.12859375 -7.79296875 11.6796875 C-4.51063169 7.99005314 -2.00600254 4.56922802 0 0 Z " fill="#EDADBB" transform="translate(848,529)"/>
<path d="M0 0 C21.75216138 7.50432277 21.75216138 7.50432277 25 14 C23.35 14.33 21.7 14.66 20 15 C19.67 14.01 19.34 13.02 19 12 C18.34 11.67 17.68 11.34 17 11 C17 10.34 17 9.68 17 9 C16.17242187 8.83177734 16.17242187 8.83177734 15.328125 8.66015625 C12.59934789 7.88639227 10.27227057 6.73182306 7.75 5.4375 C6.85796875 4.98246094 5.9659375 4.52742188 5.046875 4.05859375 C4.37140625 3.70925781 3.6959375 3.35992187 3 3 C2.67 3.66 2.34 4.32 2 5 C1.34 3.35 0.68 1.7 0 0 Z " fill="#DB6D8E" transform="translate(310,424)"/>
<path d="M0 0 C-0.66 0.66 -1.32 1.32 -2 2 C-2.99 2 -3.98 2 -5 2 C-5 2.66 -5 3.32 -5 4 C-7.97 5.32 -10.94 6.64 -14 8 C-14.99 6.68 -15.98 5.36 -17 4 C-11.06561592 0.92291196 -6.70126536 -0.48736475 0 0 Z " fill="#D85D89" transform="translate(828,501)"/>
<path d="M0 0 C0.66 0 1.32 0 2 0 C2 0.66 2 1.32 2 2 C2.87978516 2.18949219 2.87978516 2.18949219 3.77734375 2.3828125 C5.95221334 2.98673059 7.59835326 3.78050786 9.5625 4.875 C14.47547543 7.41971695 19.645953 8.70085624 25 10 C25 10.66 25 11.32 25 12 C16.11996602 11.39454314 6.93021514 7.5826733 0 2 C0 1.34 0 0.68 0 0 Z " fill="#C93B74" transform="translate(227,597)"/>
<path d="M0 0 C0.66 0.33 1.32 0.66 2 1 C1.505 1.66 1.01 2.32 0.5 3 C-1.38751798 6.77503596 -1.68071556 9.90057963 -1 14 C0.86095031 19.42276918 3.75316929 23.22503937 8 27 C1.39484979 25.53218884 1.39484979 25.53218884 -0.4375 23.0625 C-1 21 -1 21 -1 18 C-1.66 18 -2.32 18 -3 18 C-3 13.05 -3 8.1 -3 3 C-2.34 3 -1.68 3 -1 3 C-0.67 2.01 -0.34 1.02 0 0 Z " fill="#CD4A79" transform="translate(264,506)"/>
<path d="M0 0 C-3.01022466 2.5921379 -5.13608258 4.18038115 -9 5 C-13.1733641 6.78858462 -15.43551891 8.28150241 -18 12 C-18.66 12 -19.32 12 -20 12 C-20 11.01 -20 10.02 -20 9 C-19.34 9 -18.68 9 -18 9 C-17.76796875 8.39671875 -17.5359375 7.7934375 -17.296875 7.171875 C-14.04325624 1.72304359 -6.05128511 -0.79622173 0 0 Z " fill="#D0336F" transform="translate(246,426)"/>
<path d="M0 0 C-0.27456196 6.17764408 -1.02176128 10.17789247 -5 15 C-5.99 15.495 -5.99 15.495 -7 16 C-6.50523351 10.35966205 -5.58054378 6.05786581 -3 1 C-1 0 -1 0 0 0 Z " fill="#D94D7F" transform="translate(830,516)"/>
<path d="M0 0 C0 0.66 0 1.32 0 2 C-4.67049515 4.7376287 -7.98799719 5.33996234 -13.375 5.1875 C-14.62023437 5.16042969 -15.86546875 5.13335938 -17.1484375 5.10546875 C-18.55996094 5.05326172 -18.55996094 5.05326172 -20 5 C-20 4.67 -20 4.34 -20 4 C-16.04 4 -12.08 4 -8 4 C-8 3.34 -8 2.68 -8 2 C-10.31 2 -12.62 2 -15 2 C-15 1.67 -15 1.34 -15 1 C-9.9752761 0.37470103 -5.07471573 -0.13012092 0 0 Z " fill="#D47994" transform="translate(830,550)"/>
<path d="M0 0 C4.08787651 -0.48665196 5.76152463 -0.14848467 9.3125 2.0625 C12.49118667 5.53687845 13 7.33730743 13 12 C12.0625 14.4375 12.0625 14.4375 11 16 C10.67 16 10.34 16 10 16 C10 12.37 10 8.74 10 5 C9.01 4.67 8.02 4.34 7 4 C7 3.67 7 3.34 7 3 C4.36 2.67 1.72 2.34 -1 2 C-0.67 1.34 -0.34 0.68 0 0 Z " fill="#CF5884" transform="translate(275,507)"/>
<path d="M0 0 C0.66 0 1.32 0 2 0 C2.33 0.99 2.66 1.98 3 3 C5.29629994 4.14814997 7.07698086 4.30769809 9.625 4.5625 C10.44226563 4.64628906 11.25953125 4.73007812 12.1015625 4.81640625 C12.72804688 4.87699219 13.35453125 4.93757812 14 5 C14 5.33 14 5.66 14 6 C10.7 6 7.4 6 4 6 C3.34 7.65 2.68 9.3 2 11 C1.01 10.67 0.02 10.34 -1 10 C-0.67 6.7 -0.34 3.4 0 0 Z " fill="#CB397B" transform="translate(803,529)"/>
<path d="M0 0 C0.66 0.33 1.32 0.66 2 1 C0.25395451 2.4630657 -1.49699453 3.9202808 -3.25 5.375 C-4.22453125 6.18710937 -5.1990625 6.99921875 -6.203125 7.8359375 C-8.4552682 9.57851757 -10.40711386 10.876416 -13 12 C-12.63843056 9.17601801 -12.12481245 8.12008847 -10.0390625 6.11328125 C-9.24242187 5.51902344 -8.44578125 4.92476563 -7.625 4.3125 C-6.83351562 3.71050781 -6.04203125 3.10851562 -5.2265625 2.48828125 C-3 1 -3 1 0 0 Z " fill="#CE2C6D" transform="translate(223,437)"/>
<path d="M0 0 C0.33 1.32 0.66 2.64 1 4 C-0.98600337 5.3540932 -2.98817543 6.68457624 -5 8 C-5.928125 8.61875 -5.928125 8.61875 -6.875 9.25 C-10.24531012 10.43952122 -13.44282398 10.11857253 -17 10 C-17 9.34 -17 8.68 -17 8 C-16.33613281 7.89042969 -15.67226563 7.78085937 -14.98828125 7.66796875 C-8.05645126 6.45103356 -8.05645126 6.45103356 -2 3 C-1.34 2.01 -0.68 1.02 0 0 Z " fill="#CF537F" transform="translate(292,525)"/>
<path d="M0 0 C1.32 1.65 2.64 3.3 4 5 C1.75 7.5625 1.75 7.5625 -1 10 C-3.3125 9.8125 -3.3125 9.8125 -5 9 C-3.7508258 5.54074837 -2.32472205 2.85306797 0 0 Z " fill="#C63A74" transform="translate(778,518)"/>
<path d="M0 0 C2.56269497 1.04109483 4.02610343 2.02610343 6 4 C6.125 6.625 6.125 6.625 6 9 C2.97009905 7.28032649 0.23672704 5.70761694 -2 3 C-2 2.34 -2 1.68 -2 1 C-1.34 0.67 -0.68 0.34 0 0 Z " fill="#EFA4B9" transform="translate(841,508)"/>
<path d="M0 0 C2.6875 0.3125 2.6875 0.3125 5 1 C4.34 3.31 3.68 5.62 3 8 C2.34 7.67 1.68 7.34 1 7 C1 6.34 1 5.68 1 5 C-0.32 4.34 -1.64 3.68 -3 3 C-1.8125 1.4375 -1.8125 1.4375 0 0 Z " fill="#D82170" transform="translate(781,517)"/>
<path d="M0 0 C0.99 0 1.98 0 3 0 C1.49471893 4.04992289 -0.88730314 5.5253393 -4.5 7.75 C-5.4796875 8.36359375 -6.459375 8.9771875 -7.46875 9.609375 C-10 11 -10 11 -12 11 C-12 10.34 -12 9.68 -12 9 C-11.01 9 -10.02 9 -9 9 C-9 8.34 -9 7.68 -9 7 C-2.25 3 -2.25 3 0 3 C0 2.01 0 1.02 0 0 Z " fill="#DC7895" transform="translate(337,590)"/>
<path d="M0 0 C4.17443363 3.50074982 8.3145494 6.97950843 12 11 C12 11.66 12 12.32 12 13 C11.34 13 10.68 13 10 13 C8.66666667 11.66666667 7.33333333 10.33333333 6 9 C5.01 8.67 4.02 8.34 3 8 C3 7.01 3 6.02 3 5 C2.0206121 3.97980427 1.02104551 2.97850195 0 2 C0 1.34 0 0.68 0 0 Z " fill="#E3859C" transform="translate(341,442)"/>
<path d="M0 0 C2.93446886 1.41791563 5.43332409 2.98332607 8 5 C6.68 5.33 5.36 5.66 4 6 C4 7.65 4 9.3 4 11 C1.6870518 8.6870518 1.50419025 7.52095125 0.875 4.375 C0.70742188 3.55773437 0.53984375 2.74046875 0.3671875 1.8984375 C0.24601563 1.27195312 0.12484375 0.64546875 0 0 Z " fill="#FBD0E9" transform="translate(785,523)"/>
<path d="M0 0 C0.66 0.66 1.32 1.32 2 2 C-0.12282669 3.00460531 -2.24833021 4.00355602 -4.375 5 C-6.15003906 5.8353125 -6.15003906 5.8353125 -7.9609375 6.6875 C-11 8 -11 8 -13 8 C-12.67 7.01 -12.34 6.02 -12 5 C-9.93359375 4.26953125 -9.93359375 4.26953125 -7.4375 3.8125 C-6.61121094 3.65394531 -5.78492188 3.49539063 -4.93359375 3.33203125 C-4.29550781 3.22246094 -3.65742188 3.11289062 -3 3 C-3 2.34 -3 1.68 -3 1 C-2.01 0.67 -1.02 0.34 0 0 Z " fill="#D6678A" transform="translate(323,600)"/>
<path d="M0 0 C11.52164009 1.92710706 11.52164009 1.92710706 17 4 C17 4.33 17 4.66 17 5 C15.36041659 4.76089409 13.72094301 4.52101087 12.08203125 4.27734375 C10.66696758 4.08884559 9.24672676 3.93643834 7.82421875 3.81640625 C5.87165061 3.64149612 3.93282081 3.32759675 2 3 C1.34 2.01 0.68 1.02 0 0 Z " fill="#D35F84" transform="translate(293,420)"/>
<path d="M0 0 C3.24208567 0.35049575 4.61527704 0.56221181 6.8125 3.0625 C7.204375 3.701875 7.59625 4.34125 8 5 C6.35 6.32 4.7 7.64 3 9 C3.33 7.02 3.66 5.04 4 3 C2.02 3 0.04 3 -2 3 C-1.34 2.01 -0.68 1.02 0 0 Z " fill="#CF457E" transform="translate(781,515)"/>
<path d="M0 0 C5.94 0.99 5.94 0.99 12 2 C12 2.66 12 3.32 12 4 C10.56416999 4.10836453 9.1259798 4.18576167 7.6875 4.25 C6.48673828 4.31960938 6.48673828 4.31960938 5.26171875 4.390625 C3 4 3 4 0 0 Z " fill="#D75880" transform="translate(810,550)"/>
<path d="M0 0 C3.12270126 2.51830747 3.94523098 3.7261549 4.75 7.75 C4.8325 8.8225 4.915 9.895 5 11 C1.94259517 8.24833565 0.15249839 5.98135808 -1 2 C-0.67 1.34 -0.34 0.68 0 0 Z " fill="#ECACBD" transform="translate(846,498)"/>
<path d="M0 0 C0.93065133 2.60582371 1.14917407 3.64198224 0.0625 6.25 C-0.4634375 7.11625 -0.4634375 7.11625 -1 8 C-1.99 8 -2.98 8 -4 8 C-4.25 5.6875 -4.25 5.6875 -4 3 C-2 1.1875 -2 1.1875 0 0 Z " fill="#DE7293" transform="translate(788,499)"/>
<path d="M0 0 C1 2 1 2 0.44140625 4.1640625 C0.15136719 4.97617187 -0.13867188 5.78828125 -0.4375 6.625 C-0.72496094 7.44226563 -1.01242187 8.25953125 -1.30859375 9.1015625 C-1.53675781 9.72804688 -1.76492188 10.35453125 -2 11 C-1.34 11 -0.68 11 0 11 C-0.33 11.99 -0.66 12.98 -1 14 C-1.66 14 -2.32 14 -3 14 C-3.08153933 12.41753293 -3.13943557 10.83383727 -3.1875 9.25 C-3.22230469 8.36828125 -3.25710938 7.4865625 -3.29296875 6.578125 C-2.94923684 3.55328417 -1.99772541 2.24416398 0 0 Z " fill="#FDDBF0" transform="translate(809,513)"/>
<path d="M0 0 C0 0.66 0 1.32 0 2 C-1.8125 3.0625 -1.8125 3.0625 -4 4 C-4.99 3.67 -5.98 3.34 -7 3 C-6.34 3 -5.68 3 -5 3 C-5 2.34 -5 1.68 -5 1 C-5.99 0.67 -6.98 0.34 -8 0 C-4.71023192 -1.09658936 -3.28696233 -0.79953138 0 0 Z " fill="#E592A7" transform="translate(835,549)"/>
<path d="M0 0 C-0.33 2.97 -0.66 5.94 -1 9 C-2.32 8.01 -3.64 7.02 -5 6 C-2.84615385 0 -2.84615385 0 0 0 Z " fill="#D8648D" transform="translate(830,516)"/>
<path d="M0 0 C1.8871875 0.0309375 1.8871875 0.0309375 3.8125 0.0625 C3.1525 0.7225 2.4925 1.3825 1.8125 2.0625 C0.8225 2.0625 -0.1675 2.0625 -1.1875 2.0625 C-1.1875 2.7225 -1.1875 3.3825 -1.1875 4.0625 C-1.8475 4.0625 -2.5075 4.0625 -3.1875 4.0625 C-3.1875 3.4025 -3.1875 2.7425 -3.1875 2.0625 C-4.5075 1.7325 -5.8275 1.4025 -7.1875 1.0625 C-4.43671116 0.14557039 -2.82801087 -0.04636083 0 0 Z " fill="#E0779A" transform="translate(824.1875,500.9375)"/>
<path d="M0 0 C-0.3125 2.375 -0.3125 2.375 -1 5 C-1.99 5.66 -2.98 6.32 -4 7 C-4.33 5.35 -4.66 3.7 -5 2 C-2 0 -2 0 0 0 Z " fill="#EA94AA" transform="translate(799,488)"/>
<path d="M0 0 C0.66 0.66 1.32 1.32 2 2 C-0.31 4.31 -2.62 6.62 -5 9 C-5.66 8.67 -6.32 8.34 -7 8 C-4.69 5.36 -2.38 2.72 0 0 Z " fill="#FDECF3" transform="translate(355,576)"/>
<path d="M0 0 C1.98 0.495 1.98 0.495 4 1 C3.34 2.65 2.68 4.3 2 6 C1.01 5.67 0.02 5.34 -1 5 C-0.67 3.35 -0.34 1.7 0 0 Z " fill="#BE367A" transform="translate(803,534)"/>
<path d="M0 0 C0.66 0 1.32 0 2 0 C2.33 2.64 2.66 5.28 3 8 C2.566875 7.525625 2.13375 7.05125 1.6875 6.5625 C-0.02309613 4.76313043 -0.02309613 4.76313043 -3 4 C-1.625 2 -1.625 2 0 0 Z " fill="#F5B9D3" transform="translate(780,523)"/>
<path d="M0 0 C2.125 0.375 2.125 0.375 4 1 C2.25 4.875 2.25 4.875 0 6 C0 5.01 0 4.02 0 3 C-0.66 2.67 -1.32 2.34 -2 2 C-1.34 1.34 -0.68 0.68 0 0 Z " fill="#CB3B75" transform="translate(810,506)"/>
<path d="M0 0 C2.64 0 5.28 0 8 0 C8 0.66 8 1.32 8 2 C3.545 2.495 3.545 2.495 -1 3 C-0.67 2.01 -0.34 1.02 0 0 Z " fill="#EB96A7" transform="translate(807,484)"/>
<path d="M0 0 C1.32 1.32 2.64 2.64 4 4 C2.68 4.99 1.36 5.98 0 7 C-0.66 6.01 -1.32 5.02 -2 4 C-1.34 2.68 -0.68 1.36 0 0 Z " fill="#525557" transform="translate(704,531)"/>
<path d="M0 0 C1.98 0 3.96 0 6 0 C6 0.66 6 1.32 6 2 C4.02 2.99 4.02 2.99 2 4 C1.01 3.34 0.02 2.68 -1 2 C-0.67 1.34 -0.34 0.68 0 0 Z " fill="#E77C98" transform="translate(824,550)"/>
<path d="M0 0 C0.33 0.66 0.66 1.32 1 2 C-0.91522803 6.03205902 -1.85351878 6.92675939 -6 9 C-4.02 6.03 -2.04 3.06 0 0 Z " fill="#FCD9EE" transform="translate(819,517)"/>
<path d="M0 0 C0.99 0.33 1.98 0.66 3 1 C3 4.96 3 8.92 3 13 C2.67 13 2.34 13 2 13 C1.93941406 12.39671875 1.87882812 11.7934375 1.81640625 11.171875 C1.69072266 9.97304688 1.69072266 9.97304688 1.5625 8.75 C1.48128906 7.96109375 1.40007812 7.1721875 1.31640625 6.359375 C1.02365007 4.17635361 0.57935581 2.1226818 0 0 Z " fill="#DD6F96" transform="translate(292,507)"/>
<path d="M0 0 C0.99 0 1.98 0 3 0 C2.67 1.65 2.34 3.3 2 5 C-1 5 -1 5 -3 4 C-1.6875 2 -1.6875 2 0 0 Z " fill="#E37998" transform="translate(788,496)"/>
<path d="M0 0 C2 3 2 3 3 6 C1.02 6.66 -0.96 7.32 -3 8 C-2.01 5.36 -1.02 2.72 0 0 Z " fill="#4F5152" transform="translate(481,511)"/>
</svg>
